<svg width="16" height="16" viewBox="0 0 16 16" fill="none" xmlns="http://www.w3.org/2000/svg">
<path d="M2.14625 8.35372L6.64625 12.8537C6.74007 12.9475 6.86732 13.0003 7 13.0003C7.13268 13.0003 7.25993 12.9475 7.35375 12.8537C7.44757 12.7599 7.50028 12.6327 7.50028 12.5C7.50028 12.3673 7.44757 12.24 7.35375 12.1462L3.70687 8.49997H13.5C13.6326 8.49997 13.7598 8.44729 13.8536 8.35353C13.9473 8.25976 14 8.13258 14 7.99997C14 7.86736 13.9473 7.74019 13.8536 7.64642C13.7598 7.55265 13.6326 7.49997 13.5 7.49997H3.70687L7.35375 3.85372C7.44757 3.7599 7.50028 3.63265 7.50028 3.49997C7.50028 3.36729 7.44757 3.24004 7.35375 3.14622C7.25993 3.0524 7.13268 2.99969 7 2.99969C6.86732 2.99969 6.74007 3.0524 6.64625 3.14622L2.14625 7.64622C2.09976 7.69266 2.06288 7.7478 2.03772 7.8085C2.01256 7.8692 1.99961 7.93427 1.99961 7.99997C1.99961 8.06568 2.01256 8.13074 2.03772 8.19144C2.06288 8.25214 2.09976 8.30729 2.14625 8.35372Z" fill="#DDDDDD"/>
</svg>
