<svg width="20" height="20" viewBox="0 0 20 20" fill="none" xmlns="http://www.w3.org/2000/svg">
<path d="M19.7081 18.2926C19.801 18.3855 19.8747 18.4958 19.9249 18.6172C19.9752 18.7386 20.0011 18.8687 20.0011 19.0001C20.0011 19.1315 19.9752 19.2616 19.9249 19.383C19.8747 19.5044 19.801 19.6147 19.7081 19.7076C19.6151 19.8005 19.5048 19.8742 19.3835 19.9245C19.2621 19.9747 19.132 20.0006 19.0006 20.0006C18.8692 20.0006 18.7391 19.9747 18.6177 19.9245C18.4963 19.8742 18.386 19.8005 18.2931 19.7076L10.0006 11.4138L1.70806 19.7076C1.52042 19.8952 1.26592 20.0006 1.00056 20.0006C0.735192 20.0006 0.480697 19.8952 0.293056 19.7076C0.105415 19.5199 5.23096e-09 19.2654 0 19.0001C-5.23096e-09 18.7347 0.105415 18.4802 0.293056 18.2926L8.58681 10.0001L0.293056 1.70757C0.105415 1.51993 0 1.26543 0 1.00007C0 0.734704 0.105415 0.480208 0.293056 0.292568C0.480697 0.104927 0.735192 -0.000488281 1.00056 -0.000488281C1.26592 -0.000488281 1.52042 0.104927 1.70806 0.292568L10.0006 8.58632L18.2931 0.292568C18.4807 0.104927 18.7352 -0.000488286 19.0006 -0.000488281C19.2659 -0.000488276 19.5204 0.104927 19.7081 0.292568C19.8957 0.480208 20.0011 0.734704 20.0011 1.00007C20.0011 1.26543 19.8957 1.51993 19.7081 1.70757L11.4143 10.0001L19.7081 18.2926Z" fill="black"/>
</svg>
